<svg width="1920" height="1131" viewBox="0 0 1920 1131" fill="none" xmlns="http://www.w3.org/2000/svg">
<g opacity="0.8">
<path d="M2024.73 1023.31C2024.73 1082.79 1969.9 1130.97 1902.25 1130.97H1531.77C1464.11 1130.97 1409.28 1082.75 1409.28 1023.31C1409.28 963.872 1464.11 915.651 1531.77 915.651H1902.21C1969.87 915.651 2024.7 963.872 2024.7 1023.31H2024.73Z" fill="#AAC9E0" fill-opacity="0.15"/>
</g>
<path opacity="0.8" d="M1526.46 889.831C1591.88 889.831 1644.92 836.815 1644.92 771.416C1644.92 706.016 1591.88 653 1526.46 653C1461.04 653 1408 706.016 1408 771.416C1408 836.815 1461.04 889.831 1526.46 889.831Z" fill="#AAC9E0" fill-opacity="0.15"/>
<path d="M279.847 759.741C239.115 792.68 191.658 817.246 140.245 831.152C-1.64262 869.539 -157.956 825.662 -267.695 716.631C-309.727 674.853 -309.941 606.912 -268.168 564.841C-226.366 522.749 -158.425 522.559 -116.366 564.315C-61.6457 618.702 17.1207 642.095 84.2605 623.939C128.273 612.033 167.142 580.599 188.217 539.825C216.346 485.419 211.593 412.09 176.124 353.049C145.593 302.243 162.045 236.312 212.867 205.765C263.688 175.218 329.618 191.646 360.149 242.452C434.216 365.749 441.388 517.419 378.887 638.343C354.413 685.671 320.468 726.89 279.847 759.741Z" fill="#AAC9E0" fill-opacity="0.15"/>
<path d="M1205.62 611.034C1237.03 605.547 1268.1 597.596 1298.2 587.245C1373.96 561.18 1444.3 519.681 1501.57 467.238C1541.28 430.852 1573.13 390.912 1603.94 352.251C1634.11 314.368 1662.62 278.606 1695.27 250.608C1728.46 222.142 1776.22 196.669 1837.17 174.906C1884.02 158.194 1908.47 106.656 1891.72 59.7939C1875 12.9634 1823.41 -11.4495 1776.56 5.26229C1693.59 34.8821 1628.59 70.4259 1577.9 113.92C1532.26 153.05 1497.05 197.292 1462.95 240.038C1435.26 274.771 1409.12 307.603 1379.83 334.416C1300.44 407.125 1187.22 446.255 1076.95 439.084C1027.29 435.872 984.435 473.474 981.191 523.11C977.979 572.747 1015.6 615.586 1065.25 618.798C1111.64 621.822 1159.05 619.11 1205.62 611.003V611.034Z" fill="#AAC9E0" fill-opacity="0.15"/>
</svg>
